<svg xmlns="http://www.w3.org/2000/svg" xmlns:xlink="http://www.w3.org/1999/xlink" viewBox="0 0 2500 2500">
	<defs>
		<linearGradient id="a" x1="849.79" y1="1550.22" x2="850.54" y2="1549.52" gradientTransform="matrix(2341.46, 0, 0, -2498.44, -1989387.57, 3873529.63)" gradientUnits="userSpaceOnUse">
		<stop offset="0" stop-color="#52430b"/>
		<stop offset="1" stop-color="#CEA716"/>
		</linearGradient>
		<linearGradient id="b" x1="850.43" y1="1549.55" x2="849.58" y2="1550.26" gradientTransform="matrix(2065.94, 0, 0, -2500, -1754762.83, 3875944)" xlink:href="#a">
		<stop offset="0" stop-color="#52430b"/>
		<stop offset="1" stop-color="#CEA716"/>
		</linearGradient>
	</defs>
	<title>json2
	</title>
	<path d="M1247.88,1860.94c553.1,754,1094.38-210.45,1093.57-790.43-.93-685.7-695.95-1068.95-1094-1068.95C608.49,1.55,0,529.61,0,1252.11,0,2055.18,697.51,2500,1247.43,2500,1123,2482.08,708.27,2393.22,702.71,1438c-3.76-646,210.74-904.15,543.83-790.61,7.46,2.76,367.4,144.76,367.4,608.59,0,461.88-366.05,604.92-366.05,604.92Z" transform="translate(0 0)" style="fill:url(#a)"/>
	<path d="M1247.24,646.88c-365.47-126-813.17,175.25-813.17,778.57,0,985.13,730,1074.54,818.51,1074.54C1891.51,2500,2500,1971.93,2500,1249.44,2500,446.38,1802.49,1.55,1252.57,1.55c152.31-21.09,820.95,164.84,820.95,1078.69,0,596-499.26,920.39-824,781.78-7.46-2.76-367.41-144.76-367.41-608.59,0-461.88,365.12-606.54,365.12-606.54Z" transform="translate(0 0)" style="fill:url(#b)"/>
</svg>